<svg id="visual" viewBox="0 0 900 600" width="900" height="600" xmlns="http://www.w3.org/2000/svg" xmlns:xlink="http://www.w3.org/1999/xlink" version="1.1"><rect x="0" y="0" width="900" height="600" fill="#FFF"></rect><g transform="translate(450.8324541802007 258.2478541868723)"><path d="M91.1 -146.2C145.3 -126.6 235 -157 271.6 -141C308.2 -125 291.6 -62.5 263.9 -16C236.2 30.5 197.3 61 178.4 107.6C159.5 154.2 160.5 217 134.1 260.2C107.7 303.5 53.8 327.2 21.8 289.4C-10.2 251.6 -20.3 152.2 -20.3 93.7C-20.3 35.2 -10.2 17.6 -59.4 8.8C-108.7 0 -217.3 0 -265 -27.5C-312.6 -55 -299.2 -110 -247.2 -114C-195.2 -118.1 -104.6 -71.2 -57 -94.5C-9.3 -117.8 -4.7 -211.4 6.9 -223.4C18.5 -235.4 37 -165.8 91.1 -146.2" fill="none" stroke="#E25DBB" stroke-width="6"></path></g></svg>