<svg id="visual" viewBox="0 0 900 600" width="900" height="600" xmlns="http://www.w3.org/2000/svg" xmlns:xlink="http://www.w3.org/1999/xlink" version="1.1"><rect x="0" y="0" width="900" height="600" fill="#FFF"></rect><g transform="translate(408.2907823335947 289.66510456730305)"><path d="M145.3 -225.1C168.2 -238.4 153 -158.9 168.9 -106C184.8 -53 231.9 -26.5 263.1 18C294.3 62.5 309.5 125 267.1 132.1C224.7 139.1 124.6 90.8 70.5 76.7C16.3 62.6 8.2 82.8 -25.8 127.6C-59.8 172.3 -119.7 241.6 -158.6 246.9C-197.6 252.3 -215.7 193.6 -208 141.8C-200.2 90 -166.6 45 -149.6 9.8C-132.5 -25.3 -132.1 -50.7 -120.8 -69.4C-109.4 -88.2 -87.2 -100.4 -65.3 -87.7C-43.3 -75.1 -21.7 -37.5 19.7 -71.7C61.2 -106 122.3 -211.9 145.3 -225.1" fill="none" stroke="#E25DBB" stroke-width="6"></path></g></svg>