<svg id="visual" viewBox="0 0 900 200" width="900" height="200" xmlns="http://www.w3.org/2000/svg" xmlns:xlink="http://www.w3.org/1999/xlink" version="1.1"><rect x="0" y="0" width="900" height="200" fill="#8ACCF4"></rect><path d="M0 114L8.8 108.7C17.7 103.3 35.3 92.7 53 88C70.7 83.3 88.3 84.7 106 100C123.7 115.3 141.3 144.7 159 143.3C176.7 142 194.3 110 212 93.2C229.7 76.3 247.3 74.7 265 72.5C282.7 70.3 300.3 67.7 318 64.2C335.7 60.7 353.3 56.3 371 77.5C388.7 98.7 406.3 145.3 423.8 143.7C441.3 142 458.7 92 476.2 74.5C493.7 57 511.3 72 529 85C546.7 98 564.3 109 582 102.7C599.7 96.3 617.3 72.7 635 57.2C652.7 41.7 670.3 34.3 688 45.3C705.7 56.3 723.3 85.7 741 97.2C758.7 108.7 776.3 102.3 794 110.3C811.7 118.3 829.3 140.7 847 129.2C864.7 117.7 882.3 72.3 891.2 49.7L900 27L900 201L891.2 201C882.3 201 864.7 201 847 201C829.3 201 811.7 201 794 201C776.3 201 758.7 201 741 201C723.3 201 705.7 201 688 201C670.3 201 652.7 201 635 201C617.3 201 599.7 201 582 201C564.3 201 546.7 201 529 201C511.3 201 493.7 201 476.2 201C458.7 201 441.3 201 423.8 201C406.3 201 388.7 201 371 201C353.3 201 335.7 201 318 201C300.3 201 282.7 201 265 201C247.3 201 229.7 201 212 201C194.3 201 176.7 201 159 201C141.3 201 123.7 201 106 201C88.3 201 70.7 201 53 201C35.3 201 17.7 201 8.8 201L0 201Z" fill="#ffffff" stroke-linecap="round" stroke-linejoin="miter"></path></svg>