<svg width="174" height="144" viewBox="0 0 174 144" fill="none" xmlns="http://www.w3.org/2000/svg">
<path d="M9.41728 41.5169C10.3003 41.3278 12.441 41.1951 15.6979 41.1346C18.8915 41.0752 23.0091 41.0853 27.7328 41.1407C36.0835 41.2385 46.2885 41.4768 56.5598 41.7167C57.9074 41.7481 59.2562 41.7796 60.602 41.8109C72.1972 42.0798 83.5797 42.3274 92.1273 42.3512C96.3973 42.3631 99.985 42.3192 102.546 42.1921C103.821 42.1288 104.882 42.0432 105.66 41.9254C106.042 41.8677 106.416 41.7936 106.733 41.6884C106.889 41.6365 107.089 41.5583 107.286 41.4359C107.457 41.3294 107.808 41.0783 107.996 40.6072C108.182 40.143 108.191 39.5908 108.187 39.2203C108.181 38.7742 108.141 38.2385 108.079 37.6468C107.955 36.46 107.733 34.9214 107.468 33.1757C107.372 32.5465 107.271 31.8881 107.166 31.2056C106.683 28.0742 106.122 24.4347 105.694 20.7701C105.172 16.2943 104.862 11.8806 105.119 8.40081C105.248 6.65778 105.515 5.23377 105.92 4.18227C106.328 3.12332 106.807 2.616 107.252 2.40245C107.303 2.37829 107.599 2.29037 108.335 2.40665C109.029 2.51612 109.932 2.77708 111.042 3.20763C113.255 4.06668 116.089 5.5232 119.346 7.46508C125.85 11.342 133.87 17.0521 141.676 23.4596C149.484 29.8689 157.03 36.9368 162.609 43.5185C165.399 46.8103 167.669 49.9483 169.235 52.7951C170.814 55.6667 171.603 58.111 171.603 60.0501C171.603 62.0303 170.789 64.9196 169.177 68.5714C167.584 72.1794 165.284 76.3749 162.477 80.9124C156.864 89.9842 149.287 100.317 141.466 109.875C133.642 119.437 125.613 128.176 119.107 134.075C115.843 137.034 113.025 139.221 110.847 140.451C109.75 141.07 108.91 141.392 108.317 141.493C108.03 141.542 107.851 141.53 107.753 141.509C107.668 141.492 107.643 141.469 107.63 141.457C106.208 140.121 105.349 137.556 105.048 133.992C104.753 130.504 105.017 126.401 105.506 122.375C105.993 118.359 106.695 114.489 107.249 111.469L107.315 111.112C107.563 109.761 107.78 108.579 107.925 107.663C108.004 107.166 108.065 106.721 108.098 106.354C108.124 106.063 108.16 105.592 108.058 105.186C107.933 104.683 107.606 104.377 107.371 104.22C107.146 104.07 106.922 103.996 106.776 103.957C106.483 103.879 106.166 103.855 105.899 103.846C105.339 103.828 104.593 103.87 103.724 103.946C101.968 104.099 99.4599 104.413 96.3949 104.801L95.9108 104.863C89.7957 105.637 81.4539 106.693 71.9733 107.443C52.5724 108.978 28.6041 109.21 9.38217 103.222C6.19817 100.137 4.03426 95.0028 2.79047 88.7348C1.52468 82.3557 1.25481 75.0201 1.70029 68.0059C2.14586 60.9902 3.30209 54.3731 4.84416 49.4368C5.61713 46.9624 6.46797 44.9727 7.33616 43.5782C8.24798 42.1136 8.98957 41.6085 9.41728 41.5169Z" fill="#FF3EBA" stroke="black" stroke-width="3" stroke-linecap="round"/>
<path d="M58.1031 39.0502C58.1031 45.6929 56.2697 51.6402 53.3836 55.8844C50.4921 60.1366 46.6538 62.5502 42.6031 62.5502C38.5525 62.5502 34.7142 60.1366 31.8227 55.8844C28.9366 51.6402 27.1031 45.6929 27.1031 39.0502C27.1031 32.4075 28.9366 26.4602 31.8227 22.216C34.7142 17.9638 38.5525 15.5502 42.6031 15.5502C46.6538 15.5502 50.4921 17.9638 53.3836 22.216C56.2697 26.4602 58.1031 32.4075 58.1031 39.0502Z" fill="white" stroke="black" stroke-width="3"/>
<path d="M91.1031 39.0502C91.1031 45.6929 89.2697 51.6402 86.3836 55.8844C83.4921 60.1366 79.6538 62.5502 75.6031 62.5502C71.5525 62.5502 67.7142 60.1366 64.8227 55.8844C61.9366 51.6402 60.1031 45.6929 60.1031 39.0502C60.1031 32.4075 61.9366 26.4602 64.8227 22.216C67.7142 17.9638 71.5525 15.5502 75.6031 15.5502C79.6538 15.5502 83.4921 17.9638 86.3836 22.216C89.2697 26.4602 91.1031 32.4075 91.1031 39.0502Z" fill="white" stroke="black" stroke-width="3"/>
<ellipse cx="80" cy="38" rx="11" ry="16" fill="black"/>
<ellipse cx="47" cy="38" rx="11" ry="16" fill="black"/>
<path d="M54.6371 74.8754C53.2862 72.2234 52.1789 60.5373 58.6632 61.0677C65.1475 61.5981 66.4738 70.8854 65.6633 74.0677C64.8527 77.2501 55.988 77.5273 54.6371 74.8754Z" fill="white" stroke="black" stroke-width="3" stroke-linecap="round"/>
</svg>
