<svg width="22" height="22" viewBox="0 0 22 22" fill="none" xmlns="http://www.w3.org/2000/svg">
<path d="M6.53956 2.09445C7.0919 2.63393 7.42033 3.36196 7.45924 4.13307L10.2643 1.34337C10.3606 1.23537 10.4787 1.14894 10.6108 1.08977C10.7428 1.03059 10.8859 1 11.0307 1C11.1754 1 11.3185 1.03059 11.4506 1.08977C11.5826 1.14894 11.7007 1.23537 11.7971 1.34337L14.0656 3.70388C13.7434 3.86012 13.4484 4.06714 13.1919 4.317C12.6459 4.9174 12.3521 5.70494 12.3714 6.51622C12.3906 7.3275 12.7215 8.10022 13.2953 8.67404C13.8691 9.24786 14.6418 9.57872 15.4531 9.59798C16.2644 9.61723 17.0519 9.3234 17.6523 8.77744C17.9022 8.52094 18.1092 8.22595 18.2655 7.90375L20.6566 10.2643C20.7646 10.3606 20.8511 10.4787 20.9102 10.6108C20.9694 10.7428 21 10.8859 21 11.0307C21 11.1754 20.9694 11.3185 20.9102 11.4506C20.8511 11.5826 20.7646 11.7007 20.6566 11.7971L17.8669 14.5408C18.4712 14.5773 19.052 14.7876 19.5395 15.1463C20.0271 15.5051 20.4006 15.997 20.6153 16.563C20.83 17.129 20.8766 17.7449 20.7495 18.3368C20.6225 18.9286 20.3272 19.4711 19.8992 19.8992C19.4711 20.3272 18.9286 20.6225 18.3368 20.7495C17.7449 20.8766 17.129 20.83 16.563 20.6153C15.997 20.4006 15.5051 20.0271 15.1463 19.5395C14.7876 19.052 14.5773 18.4712 14.5408 17.8669L11.7357 20.6566C11.6394 20.7646 11.5213 20.8511 11.3892 20.9102C11.2572 20.9694 11.1141 21 10.9693 21C10.8246 21 10.6815 20.9694 10.5494 20.9102C10.4174 20.8511 10.2993 20.7646 10.2029 20.6566L7.9344 18.2961C8.25661 18.1399 8.5516 17.9329 8.8081 17.683C9.39959 17.0874 9.73027 16.2813 9.7274 15.4419C9.72452 14.6026 9.38833 13.7987 8.79277 13.2072C8.19721 12.6157 7.39108 12.2851 6.55171 12.2879C5.71234 12.2908 4.90849 12.627 4.317 13.2226C4.06714 13.4791 3.86012 13.7741 3.70388 14.0963L1.34337 11.7357C1.23537 11.6394 1.14894 11.5213 1.08977 11.3892C1.03059 11.2572 1 11.1141 1 10.9693C1 10.8246 1.03059 10.6815 1.08977 10.5494C1.14894 10.4174 1.23537 10.2993 1.34337 10.2029L4.13307 7.45924C3.36196 7.42033 2.63393 7.0919 2.09445 6.53956C1.50499 5.9501 1.17383 5.15062 1.17383 4.317C1.17383 3.48338 1.50499 2.6839 2.09445 2.09445C2.6839 1.50499 3.48338 1.17383 4.317 1.17383C5.15062 1.17383 5.9501 1.50499 6.53956 2.09445Z" stroke="#000001" stroke-width="2" stroke-linecap="round" stroke-linejoin="round"/>
</svg>
