<svg width="63" height="68" viewBox="0 0 63 68" fill="none" xmlns="http://www.w3.org/2000/svg">
<g filter="url(#filter0_d_239_16)">
<path d="M27.269 1.70767L38.7815 13.5843L55.092 10.8344C58.6472 10.2352 61.3465 13.9724 59.6604 17.1589L51.9229 31.7784L59.5787 46.441C61.2476 49.6376 58.5276 53.3589 54.9752 52.7395L38.6801 49.8982L27.1006 61.7101C24.5762 64.285 20.196 62.8474 19.6876 59.2786L17.3548 42.903L2.54308 35.5403C-0.685079 33.9353 -0.672062 29.3252 2.56535 27.7384L17.4183 20.4593L19.8431 4.09744C20.3708 0.531551 24.7594 -0.88079 27.269 1.70767Z" fill="#EDA532"/>
<path d="M36.2684 16.0203L37.549 17.3415L39.3633 17.0356L55.6737 14.2858C55.6737 14.2857 55.6738 14.2857 55.6739 14.2857C56.3688 14.1687 56.8961 14.8992 56.5669 15.5217C56.5669 15.5218 56.5668 15.5218 56.5668 15.5219L48.8294 30.1411L47.9687 31.7673L48.8203 33.3983L56.4761 48.0607C56.4761 48.0608 56.4762 48.0609 56.4762 48.0609C56.8023 48.6859 56.2714 49.4127 55.5764 49.2916C55.5764 49.2916 55.5764 49.2916 55.5764 49.2916L39.2813 46.4502L37.4687 46.1342L36.1807 47.448L24.6013 59.2599C24.6013 59.2599 24.6013 59.2599 24.6012 59.2599C24.1078 59.7632 23.2519 59.4822 23.1526 58.785L20.8198 42.4094L20.5603 40.5878L18.9127 39.7688L4.10125 32.4062C4.10117 32.4062 4.10109 32.4062 4.10102 32.4061C3.47057 32.0924 3.47286 31.1916 4.1056 30.8813C4.10565 30.8812 4.10571 30.8812 4.10576 30.8812L18.9585 23.6022L20.6107 22.7925L20.8805 20.9724L23.3053 4.61053L23.3054 4.60977C23.4082 3.91541 24.2645 3.63726 24.7559 4.14372C24.756 4.14379 24.756 4.14387 24.7561 4.14394L36.2684 16.0203Z" stroke="#0871AA" stroke-width="7"/>
</g>
<defs>
<filter id="filter0_d_239_16" x="0.129608" y="0.380859" width="62.0455" height="66.6392" filterUnits="userSpaceOnUse" color-interpolation-filters="sRGB">
<feFlood flood-opacity="0" result="BackgroundImageFix"/>
<feColorMatrix in="SourceAlpha" type="matrix" values="0 0 0 0 0 0 0 0 0 0 0 0 0 0 0 0 0 0 127 0" result="hardAlpha"/>
<feOffset dx="2" dy="4"/>
<feComposite in2="hardAlpha" operator="out"/>
<feColorMatrix type="matrix" values="0 0 0 0 0 0 0 0 0 0 0 0 0 0 0 0 0 0 0.65 0"/>
<feBlend mode="normal" in2="BackgroundImageFix" result="effect1_dropShadow_239_16"/>
<feBlend mode="normal" in="SourceGraphic" in2="effect1_dropShadow_239_16" result="shape"/>
</filter>
</defs>
</svg>
