<svg id="visual" viewBox="0 0 900 200" width="900" height="200" xmlns="http://www.w3.org/2000/svg" xmlns:xlink="http://www.w3.org/1999/xlink" version="1.1"><rect x="0" y="0" width="900" height="200" fill="#FFFFFF"></rect><path d="M0 45L8.8 57.7C17.7 70.3 35.3 95.7 53 121C70.7 146.3 88.3 171.7 106 169.7C123.7 167.7 141.3 138.3 159 132.2C176.7 126 194.3 143 212 129.2C229.7 115.3 247.3 70.7 265 50.5C282.7 30.3 300.3 34.7 318 58.2C335.7 81.7 353.3 124.3 371 137.7C388.7 151 406.3 135 423.8 123.8C441.3 112.7 458.7 106.3 476.2 103.2C493.7 100 511.3 100 529 102C546.7 104 564.3 108 582 108.5C599.7 109 617.3 106 635 95C652.7 84 670.3 65 688 59.5C705.7 54 723.3 62 741 82.8C758.7 103.7 776.3 137.3 794 129.7C811.7 122 829.3 73 847 50.3C864.7 27.7 882.3 31.3 891.2 33.2L900 35L900 201L891.2 201C882.3 201 864.7 201 847 201C829.3 201 811.7 201 794 201C776.3 201 758.7 201 741 201C723.3 201 705.7 201 688 201C670.3 201 652.7 201 635 201C617.3 201 599.7 201 582 201C564.3 201 546.7 201 529 201C511.3 201 493.7 201 476.2 201C458.7 201 441.3 201 423.8 201C406.3 201 388.7 201 371 201C353.3 201 335.7 201 318 201C300.3 201 282.7 201 265 201C247.3 201 229.7 201 212 201C194.3 201 176.7 201 159 201C141.3 201 123.7 201 106 201C88.3 201 70.7 201 53 201C35.3 201 17.7 201 8.8 201L0 201Z" fill="#8ACCF4" stroke-linecap="round" stroke-linejoin="miter"></path></svg>