<svg width="174" height="143" viewBox="0 0 174 143" fill="none" xmlns="http://www.w3.org/2000/svg">
<path d="M163.686 101.51C162.803 101.699 160.662 101.832 157.405 101.893C154.212 101.952 150.094 101.942 145.37 101.886C137.02 101.789 126.815 101.55 116.543 101.31C115.196 101.279 113.847 101.247 112.501 101.216C100.906 100.947 89.5235 100.7 80.976 100.676C76.7059 100.664 73.1182 100.708 70.5567 100.835C69.2827 100.898 68.2209 100.984 67.4428 101.102C67.0613 101.159 66.687 101.234 66.3706 101.339C66.2146 101.391 66.0141 101.469 65.8174 101.591C65.6463 101.698 65.2957 101.949 65.1073 102.42C64.9216 102.884 64.9119 103.436 64.9166 103.807C64.9222 104.253 64.9627 104.789 65.0243 105.38C65.1479 106.567 65.3701 108.106 65.6353 109.851C65.7308 110.481 65.8323 111.139 65.9375 111.822C66.4202 114.953 66.9812 118.592 67.4089 122.257C67.9312 126.733 68.2416 131.147 67.984 134.626C67.8549 136.369 67.5885 137.793 67.1831 138.845C66.7748 139.904 66.2959 140.411 65.8509 140.625C65.8006 140.649 65.5046 140.737 64.7681 140.62C64.0747 140.511 63.1708 140.25 62.0617 139.82C59.8486 138.96 57.0141 137.504 53.7568 135.562C47.2536 131.685 39.2336 125.975 31.4276 119.568C23.6193 113.158 16.0731 106.09 10.4943 99.5087C7.70415 96.2168 5.43378 93.0788 3.8681 90.232C2.28879 87.3605 1.49988 84.9161 1.49995 82.9771C1.50005 80.9968 2.31425 78.1075 3.92645 74.4557C5.51926 70.8478 7.81886 66.6522 10.6263 62.1147C16.2393 53.0429 23.8167 42.7097 31.6374 33.152C39.4613 23.5904 47.4904 14.8516 53.9965 8.95235C57.2605 5.99281 60.0784 3.80588 62.2565 2.57596C63.3531 1.9567 64.1929 1.63513 64.7858 1.53427C65.0734 1.48535 65.2526 1.49736 65.3507 1.51793C65.4349 1.53558 65.4604 1.55849 65.4729 1.57018C66.8949 2.90628 67.7541 5.47108 68.0555 9.03537C68.3505 12.5233 68.086 16.626 67.5972 20.6524C67.1098 24.6679 66.4084 28.5384 65.8539 31.5584L65.7884 31.9149C65.5402 33.2657 65.323 34.4482 65.1782 35.3638C65.0997 35.8607 65.038 36.3066 65.0049 36.6736C64.9788 36.9639 64.9433 37.435 65.0448 37.8407C65.1707 38.3445 65.4971 38.6498 65.7321 38.8068C65.9577 38.9575 66.1814 39.031 66.3269 39.0699C66.6205 39.1483 66.9371 39.1725 67.2047 39.1811C67.7639 39.1992 68.5103 39.157 69.3796 39.0812C71.1357 38.9281 73.6433 38.6137 76.7083 38.2258L77.1924 38.1645C83.3075 37.3902 91.6493 36.334 101.13 35.584C120.531 34.0494 144.499 33.8175 163.721 39.8047C166.905 42.8904 169.069 48.0243 170.313 54.2924C171.579 60.6714 171.848 68.0071 171.403 75.0213C170.957 82.037 169.801 88.654 168.259 93.5903C167.486 96.0647 166.635 98.0545 165.767 99.4489C164.855 100.913 164.114 101.419 163.686 101.51Z" fill="#FF833E" stroke="black" stroke-width="3" stroke-linecap="round"/>
<path d="M113.5 41C113.5 34.3573 115.334 28.41 118.22 24.1658C121.111 19.9136 124.949 17.5 129 17.5C133.051 17.5 136.889 19.9136 139.78 24.1658C142.667 28.41 144.5 34.3573 144.5 41C144.5 47.6427 142.667 53.59 139.78 57.8342C136.889 62.0864 133.051 64.5 129 64.5C124.949 64.5 121.111 62.0864 118.22 57.8342C115.334 53.59 113.5 47.6427 113.5 41Z" fill="white" stroke="black" stroke-width="3"/>
<path d="M80.5 41C80.5 34.3573 82.3335 28.41 85.2196 24.1658C88.1111 19.9136 91.9493 17.5 96 17.5C100.051 17.5 103.889 19.9136 106.78 24.1658C109.667 28.41 111.5 34.3573 111.5 41C111.5 47.6427 109.667 53.59 106.78 57.8342C103.889 62.0864 100.051 64.5 96 64.5C91.9493 64.5 88.1111 62.0864 85.2196 57.8342C82.3335 53.59 80.5 47.6427 80.5 41Z" fill="white" stroke="black" stroke-width="3"/>
<ellipse cx="91.6033" cy="42.0502" rx="11" ry="16" transform="rotate(180 91.6033 42.0502)" fill="black"/>
<ellipse cx="124.603" cy="42.0502" rx="11" ry="16" transform="rotate(180 124.603 42.0502)" fill="black"/>
<path d="M117.487 66.2771C118.838 68.929 119.945 80.6152 113.461 80.0848C106.977 79.5544 107.71 71.8077 108.521 68.6253C109.331 65.443 116.136 63.6251 117.487 66.2771Z" fill="white" stroke="black" stroke-width="3" stroke-linecap="round"/>
</svg>
